<svg id="Layer_1" data-name="Layer 1" xmlns="http://www.w3.org/2000/svg" viewBox="0 0 128 128"><defs><style>.cls-1,.cls-3{fill:#a3a7e4;}.cls-2,.cls-6{fill:none;}.cls-2,.cls-3,.cls-4,.cls-5{stroke:#383f51;stroke-linecap:round;stroke-linejoin:round;stroke-width:2px;}.cls-4{fill:#f1c550;}.cls-5{fill:#fbe9d0;}</style></defs><title>Happy owl</title><path class="cls-1" d="M52,47C41.51,47,33,58.64,33,73S46.43,99,63,99c14.36,0,26,11.19,26,25,4.94-12.26,8-25,8-36,0-22.2-9.15-40.61-25-47"/><path class="cls-2" d="M52,47C41.51,47,33,58.64,33,73S46.43,99,63,99c14.36,0,26,11.19,26,25,4.94-12.26,8-25,8-36,0-22.2-9.15-40.61-25-47"/><path class="cls-3" d="M63,4C35.67,4,32,16.57,32,30s3.67,26,31,26S94,43.43,94,30,90.33,4,63,4Z"/><path class="cls-4" d="M73,103.94c0,1.69-1.79,3.06-4,3.06a25.17,25.17,0,0,0-15,5v-5H47.28c4.3-5,9.77-8,15.72-8C68.52,99,73,101.21,73,103.94Z"/><path class="cls-5" d="M63,27c-4-5.66-10.48-10-17.87-10a21.63,21.63,0,0,0-12.25,3.78A41.3,41.3,0,0,0,32,30c0,13.43,3.67,26,31,26S94,43.43,94,30a41.3,41.3,0,0,0-.88-9.22A21.63,21.63,0,0,0,80.87,17C73.48,17,67,21.34,63,27Z"/><path class="cls-2" d="M86,32A6.5,6.5,0,0,0,74,35.5V36"/><path class="cls-2" d="M40,32A6.5,6.5,0,0,1,52,35.5V36"/><path class="cls-4" d="M63,41c12,0,6.17,19,0,19S51,41,63,41Z"/><rect class="cls-6" width="128" height="128"/></svg>